<svg width="81" height="11" viewBox="0 0 81 11" fill="none" xmlns="http://www.w3.org/2000/svg">
<path d="M6.846 7.83H2.59L1.806 10H0.462L3.99 0.298H5.46L8.974 10H7.63L6.846 7.83ZM6.482 6.794L4.718 1.866L2.954 6.794H6.482ZM17.3976 4.974C17.7523 5.03 18.0743 5.17467 18.3636 5.408C18.6623 5.64133 18.8956 5.93067 19.0636 6.276C19.2409 6.62133 19.3296 6.99 19.3296 7.382C19.3296 7.87667 19.2036 8.32467 18.9516 8.726C18.6996 9.118 18.3309 9.43067 17.8456 9.664C17.3696 9.888 16.8049 10 16.1516 10H12.5116V0.242H16.0116C16.6743 0.242 17.2389 0.354 17.7056 0.577999C18.1723 0.792666 18.5223 1.08667 18.7556 1.46C18.9889 1.83333 19.1056 2.25333 19.1056 2.72C19.1056 3.29867 18.9469 3.77933 18.6296 4.162C18.3216 4.53533 17.9109 4.806 17.3976 4.974ZM13.7856 4.456H15.9276C16.5249 4.456 16.9869 4.316 17.3136 4.036C17.6403 3.756 17.8036 3.36867 17.8036 2.874C17.8036 2.37933 17.6403 1.992 17.3136 1.712C16.9869 1.432 16.5156 1.292 15.8996 1.292H13.7856V4.456ZM16.0396 8.95C16.6743 8.95 17.1689 8.80067 17.5236 8.502C17.8783 8.20333 18.0556 7.788 18.0556 7.256C18.0556 6.71467 17.8689 6.29 17.4956 5.982C17.1223 5.66467 16.6229 5.506 15.9976 5.506H13.7856V8.95H16.0396ZM27.5215 10.098C26.6162 10.098 25.7902 9.888 25.0435 9.468C24.2969 9.03867 23.7042 8.446 23.2655 7.69C22.8362 6.92467 22.6215 6.066 22.6215 5.114C22.6215 4.162 22.8362 3.308 23.2655 2.552C23.7042 1.78667 24.2969 1.194 25.0435 0.773999C25.7902 0.344666 26.6162 0.129999 27.5215 0.129999C28.4362 0.129999 29.2669 0.344666 30.0135 0.773999C30.7602 1.194 31.3482 1.782 31.7775 2.538C32.2069 3.294 32.4215 4.15267 32.4215 5.114C32.4215 6.07533 32.2069 6.934 31.7775 7.69C31.3482 8.446 30.7602 9.03867 30.0135 9.468C29.2669 9.888 28.4362 10.098 27.5215 10.098ZM27.5215 8.992C28.2029 8.992 28.8142 8.83333 29.3555 8.516C29.9062 8.19867 30.3355 7.746 30.6435 7.158C30.9609 6.57 31.1195 5.88867 31.1195 5.114C31.1195 4.33 30.9609 3.64867 30.6435 3.07C30.3355 2.482 29.9109 2.02933 29.3695 1.712C28.8282 1.39467 28.2122 1.236 27.5215 1.236C26.8309 1.236 26.2149 1.39467 25.6735 1.712C25.1322 2.02933 24.7029 2.482 24.3855 3.07C24.0775 3.64867 23.9235 4.33 23.9235 5.114C23.9235 5.88867 24.0775 6.57 24.3855 7.158C24.7029 7.746 25.1322 8.19867 25.6735 8.516C26.2242 8.83333 26.8402 8.992 27.5215 8.992ZM37.3494 0.242V6.416C37.3494 7.284 37.5594 7.928 37.9794 8.348C38.4087 8.768 39.0014 8.978 39.7574 8.978C40.5041 8.978 41.0874 8.768 41.5074 8.348C41.9367 7.928 42.1514 7.284 42.1514 6.416V0.242H43.4254V6.402C43.4254 7.214 43.2621 7.9 42.9354 8.46C42.6087 9.01067 42.1654 9.42133 41.6054 9.692C41.0547 9.96267 40.4341 10.098 39.7434 10.098C39.0527 10.098 38.4274 9.96267 37.8674 9.692C37.3167 9.42133 36.8781 9.01067 36.5514 8.46C36.2341 7.9 36.0754 7.214 36.0754 6.402V0.242H37.3494ZM53.5567 0.242V1.278H50.8967V10H49.6227V1.278H46.9487V0.242H53.5567ZM64.1033 0.242V6.416C64.1033 7.284 64.3133 7.928 64.7333 8.348C65.1626 8.768 65.7553 8.978 66.5113 8.978C67.258 8.978 67.8413 8.768 68.2613 8.348C68.6906 7.928 68.9053 7.284 68.9053 6.416V0.242H70.1793V6.402C70.1793 7.214 70.016 7.9 69.6893 8.46C69.3626 9.01067 68.9193 9.42133 68.3593 9.692C67.8086 9.96267 67.188 10.098 66.4973 10.098C65.8066 10.098 65.1813 9.96267 64.6213 9.692C64.0706 9.42133 63.632 9.01067 63.3053 8.46C62.988 7.9 62.8293 7.214 62.8293 6.402V0.242H64.1033ZM77.3986 10.098C76.7546 10.098 76.1759 9.986 75.6626 9.762C75.1586 9.52867 74.7619 9.21133 74.4726 8.81C74.1832 8.39933 74.0339 7.928 74.0246 7.396H75.3826C75.4292 7.85333 75.6159 8.24067 75.9426 8.558C76.2786 8.866 76.7639 9.02 77.3986 9.02C78.0052 9.02 78.4812 8.87067 78.8266 8.572C79.1812 8.264 79.3586 7.872 79.3586 7.396C79.3586 7.02267 79.2559 6.71933 79.0506 6.486C78.8452 6.25267 78.5886 6.07533 78.2806 5.954C77.9726 5.83267 77.5572 5.702 77.0346 5.562C76.3906 5.394 75.8726 5.226 75.4806 5.058C75.0979 4.89 74.7666 4.62867 74.4866 4.274C74.2159 3.91 74.0806 3.42467 74.0806 2.818C74.0806 2.286 74.2159 1.81467 74.4866 1.404C74.7572 0.993333 75.1352 0.675999 75.6206 0.451999C76.1152 0.228 76.6799 0.116 77.3146 0.116C78.2292 0.116 78.9759 0.344666 79.5546 0.802C80.1426 1.25933 80.4739 1.866 80.5486 2.622H79.1486C79.1019 2.24867 78.9059 1.922 78.5606 1.642C78.2152 1.35267 77.7579 1.208 77.1886 1.208C76.6566 1.208 76.2226 1.348 75.8866 1.628C75.5506 1.89867 75.3826 2.28133 75.3826 2.776C75.3826 3.13067 75.4806 3.42 75.6766 3.644C75.8819 3.868 76.1292 4.04067 76.4186 4.162C76.7172 4.274 77.1326 4.40467 77.6646 4.554C78.3086 4.73133 78.8266 4.90867 79.2186 5.086C79.6106 5.254 79.9466 5.52 80.2266 5.884C80.5066 6.23867 80.6466 6.724 80.6466 7.34C80.6466 7.816 80.5206 8.264 80.2686 8.684C80.0166 9.104 79.6432 9.44467 79.1486 9.706C78.6539 9.96733 78.0706 10.098 77.3986 10.098Z" fill="#FD8558"/>
</svg>
